<svg width="144" height="144" viewBox="0 0 144 144" fill="none" xmlns="http://www.w3.org/2000/svg">
<g filter="url(#filter0_d_1386_4768)">
<rect width="80" height="80" transform="translate(32 32)" fill="#1A2A42"/>
<path fill-rule="evenodd" clip-rule="evenodd" d="M62 50.75C63.6328 50.75 65.0218 51.7935 65.5366 53.25H74.5C75.1904 53.25 75.75 53.8096 75.75 54.5V68.25H88.25C88.711 68.25 89.1346 68.5037 89.3521 68.9102C89.5696 69.3166 89.5458 69.8098 89.2901 70.1934L84.2901 77.6934C84.0823 78.005 83.7458 78.207 83.3732 78.2439C83.0005 78.2808 82.6309 78.1487 82.3661 77.8839L80.2322 75.75H69.908C68.6744 78.3468 66.1994 80.2395 63.25 80.6614L63.25 85.75L72 85.75C72.0707 85.75 72.1399 85.7558 72.2074 85.7671C72.7173 84.3017 74.1108 83.25 75.75 83.25C77.8211 83.25 79.5 84.9289 79.5 87C79.5 89.0711 77.8211 90.75 75.75 90.75C74.1108 90.75 72.7173 89.6983 72.2074 88.2329C72.1399 88.2441 72.0706 88.25 72 88.25L62 88.25C61.6685 88.25 61.3505 88.1183 61.1161 87.8839C60.8817 87.6495 60.75 87.3315 60.75 87L60.75 80.6614C56.5096 80.0549 53.25 76.4081 53.25 72C53.25 67.1675 57.1675 63.25 62 63.25C65.4905 63.25 68.5036 65.2938 69.908 68.25H73.25V55.75H65.5366C65.0218 57.2065 63.6328 58.25 62 58.25C59.9289 58.25 58.25 56.5711 58.25 54.5C58.25 52.4289 59.9289 50.75 62 50.75ZM62 53.25C61.3096 53.25 60.75 53.8096 60.75 54.5C60.75 55.1904 61.3096 55.75 62 55.75C62.6904 55.75 63.25 55.1904 63.25 54.5C63.25 53.8096 62.6904 53.25 62 53.25ZM70.6614 70.75C70.7198 71.1583 70.75 71.5756 70.75 72C70.75 72.4244 70.7198 72.8417 70.6614 73.25H80.75C81.0815 73.25 81.3995 73.3817 81.6339 73.6161L83.0557 75.038L85.9144 70.75H70.6614ZM62 65.75C58.5482 65.75 55.75 68.5482 55.75 72C55.75 75.4518 58.5482 78.25 62 78.25C65.4518 78.25 68.25 75.4518 68.25 72C68.25 68.5482 65.4518 65.75 62 65.75ZM75.75 88.25C76.4404 88.25 77 87.6904 77 87C77 86.3096 76.4404 85.75 75.75 85.75C75.0596 85.75 74.5 86.3096 74.5 87C74.5 87.6904 75.0596 88.25 75.75 88.25Z" fill="#1573FE"/>
</g>
<defs>
<filter id="filter0_d_1386_4768" x="0" y="0" width="144" height="144" filterUnits="userSpaceOnUse" color-interpolation-filters="sRGB">
<feFlood flood-opacity="0" result="BackgroundImageFix"/>
<feColorMatrix in="SourceAlpha" type="matrix" values="0 0 0 0 0 0 0 0 0 0 0 0 0 0 0 0 0 0 127 0" result="hardAlpha"/>
<feOffset/>
<feGaussianBlur stdDeviation="16"/>
<feComposite in2="hardAlpha" operator="out"/>
<feColorMatrix type="matrix" values="0 0 0 0 0.0823529 0 0 0 0 0.45098 0 0 0 0 0.996078 0 0 0 0.2 0"/>
<feBlend mode="normal" in2="BackgroundImageFix" result="effect1_dropShadow_1386_4768"/>
<feBlend mode="normal" in="SourceGraphic" in2="effect1_dropShadow_1386_4768" result="shape"/>
</filter>
</defs>
</svg>
