<svg width="144" height="144" viewBox="0 0 144 144" fill="none" xmlns="http://www.w3.org/2000/svg">
<g filter="url(#filter0_d_1386_4771)">
<rect width="80" height="80" transform="translate(32 32)" fill="#1A2A42"/>
<path fill-rule="evenodd" clip-rule="evenodd" d="M82 50.75C79.9289 50.75 78.25 52.4289 78.25 54.5C78.25 56.1328 79.2935 57.5218 80.75 58.0366V60.75H59.5C57.4289 60.75 55.75 62.4289 55.75 64.5V79.5C55.75 81.5711 57.4289 83.25 59.5 83.25H63.25V85.9634C61.7935 86.4782 60.75 87.8672 60.75 89.5C60.75 91.5711 62.4289 93.25 64.5 93.25C66.5711 93.25 68.25 91.5711 68.25 89.5C68.25 87.8672 67.2065 86.4782 65.75 85.9634V83.25H84.5C86.5711 83.25 88.25 81.5711 88.25 79.5V75.5366C89.7065 75.0218 90.75 73.6328 90.75 72C90.75 70.3672 89.7065 68.9782 88.25 68.4634V64.5C88.25 62.4289 86.5711 60.75 84.5 60.75H83.25V58.0366C84.7065 57.5218 85.75 56.1328 85.75 54.5C85.75 52.4289 84.0711 50.75 82 50.75ZM80.75 54.5C80.75 53.8096 81.3096 53.25 82 53.25C82.6904 53.25 83.25 53.8096 83.25 54.5C83.25 55.1904 82.6904 55.75 82 55.75C81.3096 55.75 80.75 55.1904 80.75 54.5ZM85.75 68.25V64.5C85.75 63.8096 85.1904 63.25 84.5 63.25H59.5C58.8096 63.25 58.25 63.8096 58.25 64.5V79.5C58.25 80.1904 58.8096 80.75 59.5 80.75H84.5C85.1904 80.75 85.75 80.1904 85.75 79.5V75.75H77C74.9289 75.75 73.25 74.0711 73.25 72C73.25 69.9289 74.9289 68.25 77 68.25H85.75ZM64.5 88.25C63.8096 88.25 63.25 88.8096 63.25 89.5C63.25 90.1904 63.8096 90.75 64.5 90.75C65.1904 90.75 65.75 90.1904 65.75 89.5C65.75 88.8096 65.1904 88.25 64.5 88.25ZM75.75 72C75.75 71.3096 76.3096 70.75 77 70.75H87C87.6904 70.75 88.25 71.3096 88.25 72C88.25 72.6904 87.6904 73.25 87 73.25H77C76.3096 73.25 75.75 72.6904 75.75 72Z" fill="#1573FE"/>
</g>
<defs>
<filter id="filter0_d_1386_4771" x="0" y="0" width="144" height="144" filterUnits="userSpaceOnUse" color-interpolation-filters="sRGB">
<feFlood flood-opacity="0" result="BackgroundImageFix"/>
<feColorMatrix in="SourceAlpha" type="matrix" values="0 0 0 0 0 0 0 0 0 0 0 0 0 0 0 0 0 0 127 0" result="hardAlpha"/>
<feOffset/>
<feGaussianBlur stdDeviation="16"/>
<feComposite in2="hardAlpha" operator="out"/>
<feColorMatrix type="matrix" values="0 0 0 0 0.0823529 0 0 0 0 0.45098 0 0 0 0 0.996078 0 0 0 0.2 0"/>
<feBlend mode="normal" in2="BackgroundImageFix" result="effect1_dropShadow_1386_4771"/>
<feBlend mode="normal" in="SourceGraphic" in2="effect1_dropShadow_1386_4771" result="shape"/>
</filter>
</defs>
</svg>
