<svg width="28" height="28" viewBox="0 0 28 28" fill="none" xmlns="http://www.w3.org/2000/svg">
<rect width="28" height="28" rx="8" fill="#1A2A42"/>
<path d="M11.3333 10.8333C11.0572 10.8333 10.8333 11.0571 10.8333 11.3333C10.8333 11.6094 11.0572 11.8333 11.3333 11.8333H13.3333C13.6095 11.8333 13.8333 11.6094 13.8333 11.3333C13.8333 11.0571 13.6095 10.8333 13.3333 10.8333H11.3333Z" fill="#1573FE"/>
<path d="M11.3333 13.4999C11.0572 13.4999 10.8333 13.7238 10.8333 13.9999C10.8333 14.2761 11.0572 14.4999 11.3333 14.4999H16.6667C16.9428 14.4999 17.1667 14.2761 17.1667 13.9999C17.1667 13.7238 16.9428 13.4999 16.6667 13.4999H11.3333Z" fill="#1573FE"/>
<path d="M11.3333 16.1666C11.0572 16.1666 10.8333 16.3904 10.8333 16.6666C10.8333 16.9427 11.0572 17.1666 11.3333 17.1666H13.3333C13.6095 17.1666 13.8333 16.9427 13.8333 16.6666C13.8333 16.3904 13.6095 16.1666 13.3333 16.1666H11.3333Z" fill="#1573FE"/>
<path fill-rule="evenodd" clip-rule="evenodd" d="M16.0171 6.85283C15.4457 6.83325 14.7807 6.83325 14.0074 6.83325H13.9698C12.7455 6.83325 11.7857 6.83324 11.0243 6.91574C10.2473 6.99992 9.61771 7.1748 9.08016 7.56535C8.75473 7.80179 8.46854 8.08798 8.2321 8.41341C7.84155 8.95096 7.66667 9.58054 7.58249 10.3576C7.49999 11.119 7.49999 12.0787 7.5 13.3031V14.6968C7.49999 15.9211 7.49999 16.8808 7.58249 17.6423C7.66667 18.4193 7.84155 19.0489 8.2321 19.5864C8.46854 19.9119 8.75473 20.198 9.08016 20.4345C9.61771 20.825 10.2473 20.9999 11.0243 21.0841C11.7857 21.1666 12.7454 21.1666 13.9698 21.1666H14.0302C15.2545 21.1666 16.2143 21.1666 16.9757 21.0841C17.7527 20.9999 18.3823 20.825 18.9198 20.4345C19.2453 20.198 19.5315 19.9119 19.7679 19.5864C20.1585 19.0489 20.3333 18.4193 20.4175 17.6423C20.5 16.8809 20.5 15.9211 20.5 14.6968V13.3259C20.5 12.5525 20.5 11.8876 20.4804 11.3161C20.4376 10.0672 20.3025 9.14918 19.7679 8.41341C19.5315 8.08798 19.2453 7.80179 18.9198 7.56535C18.1841 7.03078 17.2661 6.89562 16.0171 6.85283ZM9.66794 8.37437C10.0066 8.12831 10.4401 7.98489 11.132 7.90992C11.8333 7.83394 12.739 7.83325 14 7.83325C14.5656 7.83325 15.0612 7.83328 15.5012 7.84046C15.5041 8.1569 15.514 8.38985 15.5472 8.59958C15.807 10.2398 17.0934 11.5263 18.7337 11.7861C18.9434 11.8193 19.1764 11.8291 19.4928 11.832C19.5 12.2721 19.5 12.7677 19.5 13.3333V14.6666C19.5 15.9276 19.4993 16.8333 19.4233 17.5346C19.3484 18.2265 19.2049 18.66 18.9589 18.9986C18.7841 19.2392 18.5726 19.4507 18.3321 19.6255C17.9934 19.8715 17.5599 20.015 16.868 20.0899C16.1667 20.1659 15.261 20.1666 14 20.1666C12.739 20.1666 11.8333 20.1659 11.132 20.0899C10.4401 20.015 10.0066 19.8715 9.66794 19.6255C9.42741 19.4507 9.21588 19.2392 9.04112 18.9986C8.79506 18.66 8.65163 18.2265 8.57667 17.5346C8.50069 16.8333 8.5 15.9276 8.5 14.6666V13.3333C8.5 12.0722 8.50069 11.1666 8.57667 10.4653C8.65163 9.77334 8.79506 9.33986 9.04112 9.00119C9.21588 8.76066 9.42741 8.54913 9.66794 8.37437ZM16.5349 8.44315C16.5132 8.30646 16.505 8.14817 16.5019 7.87821C17.4087 7.94073 17.9324 8.08402 18.3321 8.37437C18.5726 8.54913 18.7841 8.76066 18.9589 9.00119C19.2492 9.40083 19.3925 9.9245 19.455 10.8314C19.1851 10.8283 19.0268 10.82 18.8901 10.7984C17.6777 10.6063 16.7269 9.65551 16.5349 8.44315Z" fill="#1573FE"/>
</svg>
