<svg width="15" height="15" viewBox="0 0 15 15" fill="none" xmlns="http://www.w3.org/2000/svg">
<path d="M13.4573 2.11987C13.29 1.9038 13.0961 1.70986 12.88 1.54264C12.3872 1.16128 11.8146 1.00571 11.1677 0.935072C10.5457 0.867143 9.76789 0.870627 8.81618 0.87489L6.28932 0.886165C5.87511 0.888013 5.54083 1.22529 5.54267 1.6395C5.54452 2.05371 5.8818 2.388 6.29601 2.38615L8.77815 2.37508C9.78552 2.37058 10.4777 2.36863 11.0049 2.42621C11.1762 2.44492 11.3194 2.46903 11.4411 2.49818L0.812589 13.1266C0.519696 13.4195 0.519696 13.8944 0.812589 14.1873C1.10548 14.4802 1.58036 14.4802 1.87325 14.1873L12.5017 3.55884C12.5309 3.68044 12.555 3.82364 12.5737 3.99499C12.6313 4.52223 12.6293 5.21437 12.6248 6.22174L12.6137 8.70388C12.6119 9.11809 12.9462 9.45537 13.3604 9.45722C13.7746 9.45907 14.1119 9.12478 14.1137 8.71057L14.125 6.18369C14.1293 5.23199 14.1327 4.45417 14.0648 3.83215C13.9942 3.18532 13.8386 2.61265 13.4573 2.11987Z" fill="#1573FE"/>
</svg>
