<svg width="37" height="41" viewBox="0 0 37 41" fill="none" xmlns="http://www.w3.org/2000/svg">
<path fill-rule="evenodd" clip-rule="evenodd" d="M9 0.75C10.6328 0.75 12.0218 1.79351 12.5366 3.25H21.5C22.1904 3.25 22.75 3.80964 22.75 4.5V18.25H35.25C35.711 18.25 36.1346 18.5037 36.3521 18.9102C36.5696 19.3166 36.5458 19.8098 36.2901 20.1934L31.2901 27.6934C31.0823 28.005 30.7458 28.207 30.3732 28.2439C30.0005 28.2808 29.6309 28.1487 29.3661 27.8839L27.2322 25.75H16.908C15.6744 28.3468 13.1994 30.2395 10.25 30.6614L10.25 35.75L19 35.75C19.0707 35.75 19.1399 35.7558 19.2074 35.7671C19.7173 34.3017 21.1108 33.25 22.75 33.25C24.8211 33.25 26.5 34.9289 26.5 37C26.5 39.0711 24.8211 40.75 22.75 40.75C21.1108 40.75 19.7173 39.6983 19.2074 38.2329C19.1399 38.2441 19.0706 38.25 19 38.25L9 38.25C8.66848 38.25 8.35054 38.1183 8.11612 37.8839C7.8817 37.6495 7.75 37.3315 7.75 37L7.75 30.6614C3.50963 30.0549 0.25 26.4081 0.25 22C0.25 17.1675 4.16751 13.25 9 13.25C12.4905 13.25 15.5036 15.2938 16.908 18.25H20.25V5.75H12.5366C12.0218 7.20649 10.6328 8.25 9 8.25C6.92893 8.25 5.25 6.57107 5.25 4.5C5.25 2.42893 6.92893 0.75 9 0.75ZM9 3.25C8.30964 3.25 7.75 3.80964 7.75 4.5C7.75 5.19036 8.30964 5.75 9 5.75C9.69036 5.75 10.25 5.19036 10.25 4.5C10.25 3.80964 9.69036 3.25 9 3.25ZM17.6614 20.75C17.7198 21.1583 17.75 21.5756 17.75 22C17.75 22.4244 17.7198 22.8417 17.6614 23.25H27.75C28.0815 23.25 28.3995 23.3817 28.6339 23.6161L30.0557 25.038L32.9144 20.75H17.6614ZM9 15.75C5.54822 15.75 2.75 18.5482 2.75 22C2.75 25.4518 5.54822 28.25 9 28.25C12.4518 28.25 15.25 25.4518 15.25 22C15.25 18.5482 12.4518 15.75 9 15.75ZM22.75 38.25C23.4404 38.25 24 37.6904 24 37C24 36.3096 23.4404 35.75 22.75 35.75C22.0596 35.75 21.5 36.3096 21.5 37C21.5 37.6904 22.0596 38.25 22.75 38.25Z" fill="#1573FE"/>
</svg>
