<svg width="36" height="44" viewBox="0 0 36 44" fill="none" xmlns="http://www.w3.org/2000/svg">
<path fill-rule="evenodd" clip-rule="evenodd" d="M27 0.75C24.9289 0.75 23.25 2.42893 23.25 4.5C23.25 6.13277 24.2935 7.52182 25.75 8.03662V10.75H4.5C2.42893 10.75 0.75 12.4289 0.75 14.5V29.5C0.75 31.5711 2.42893 33.25 4.5 33.25H8.25V35.9634C6.79351 36.4782 5.75 37.8672 5.75 39.5C5.75 41.5711 7.42893 43.25 9.5 43.25C11.5711 43.25 13.25 41.5711 13.25 39.5C13.25 37.8672 12.2065 36.4782 10.75 35.9634V33.25H29.5C31.5711 33.25 33.25 31.5711 33.25 29.5V25.5366C34.7065 25.0218 35.75 23.6328 35.75 22C35.75 20.3672 34.7065 18.9782 33.25 18.4634V14.5C33.25 12.4289 31.5711 10.75 29.5 10.75H28.25V8.03662C29.7065 7.52182 30.75 6.13277 30.75 4.5C30.75 2.42893 29.0711 0.75 27 0.75ZM25.75 4.5C25.75 3.80964 26.3096 3.25 27 3.25C27.6904 3.25 28.25 3.80964 28.25 4.5C28.25 5.19036 27.6904 5.75 27 5.75C26.3096 5.75 25.75 5.19036 25.75 4.5ZM30.75 18.25V14.5C30.75 13.8096 30.1904 13.25 29.5 13.25H4.5C3.80964 13.25 3.25 13.8096 3.25 14.5V29.5C3.25 30.1904 3.80964 30.75 4.5 30.75H29.5C30.1904 30.75 30.75 30.1904 30.75 29.5V25.75H22C19.9289 25.75 18.25 24.0711 18.25 22C18.25 19.9289 19.9289 18.25 22 18.25H30.75ZM9.5 38.25C8.80964 38.25 8.25 38.8096 8.25 39.5C8.25 40.1904 8.80964 40.75 9.5 40.75C10.1904 40.75 10.75 40.1904 10.75 39.5C10.75 38.8096 10.1904 38.25 9.5 38.25ZM20.75 22C20.75 21.3096 21.3096 20.75 22 20.75H32C32.6904 20.75 33.25 21.3096 33.25 22C33.25 22.6904 32.6904 23.25 32 23.25H22C21.3096 23.25 20.75 22.6904 20.75 22Z" fill="#1573FE"/>
</svg>
