<?xml version="1.0"?>
<svg width="149" height="32" xmlns="http://www.w3.org/2000/svg" xmlns:svg="http://www.w3.org/2000/svg">
 <g class="layer">
  <title>Layer 1</title>
  <path d="m3.5,32l-3.5,0l0,-9.63c0.69,-0.03 1.28,-0.09 1.88,-0.09c4.33,0 8.65,0.01 12.97,0c2.52,-0.01 4.16,-1.46 4.15,-3.61c-0.01,-2.14 -1.66,-3.58 -4.18,-3.62c-2.16,-0.02 -4.33,-0.01 -6.49,0c-1.24,0.01 -2.2,-0.44 -2.15,-1.85c0.03,-1.28 0.93,-1.75 2.11,-1.75c2.45,0.01 4.89,-0.06 7.34,0.02c3.86,0.13 6.88,3.36 6.89,7.24c0.01,3.89 -3.02,7.05 -6.94,7.14c-3.41,0.07 -6.83,0.1 -10.24,-0.02c-1.56,-0.06 -1.99,0.5 -1.86,1.99c0.11,1.32 0.02,2.66 0.02,4.18l0,0z" fill="white" id="svg_10"/>
  <path d="m22.47,0l0,9.58c-0.65,0.03 -1.25,0.08 -1.85,0.08c-4.32,0.01 -8.65,0 -12.97,0.01c-2.52,0.01 -4.14,1.47 -4.12,3.63c0.02,2.08 1.62,3.54 4.03,3.59c2.22,0.04 4.44,0.02 6.66,0c1.17,-0.01 2.1,0.42 2.13,1.71c0.04,1.38 -0.87,1.9 -2.14,1.89c-2.45,-0.01 -4.9,0.06 -7.34,-0.02c-3.87,-0.12 -6.87,-3.33 -6.86,-7.24c0,-3.8 2.99,-7.01 6.78,-7.11c3.53,-0.1 7.06,-0.09 10.58,-0.02c1.24,0.03 1.77,-0.3 1.67,-1.65c-0.1,-1.43 -0.02,-2.89 -0.02,-4.45l3.45,0l0,0z" fill="white" id="svg_11"/>
  <text fill="#ffffff" font-family="Sans-serif" font-size="24" font-weight="bold" id="svg_12" stroke-width="0" text-anchor="middle" transform="matrix(1.05358 0 0 1.07561 -2.20626 -0.020455)" x="78.5" xml:space="preserve" y="22">ICPsig</text>
 </g>
</svg>