<svg width="28" height="28" viewBox="0 0 28 28" fill="none" xmlns="http://www.w3.org/2000/svg">
<rect width="28" height="28" rx="8" fill="#1A2A42"/>
<path fill-rule="evenodd" clip-rule="evenodd" d="M13.3993 6.83325C11.1356 6.83325 9.38417 8.81727 9.66495 11.0635L9.71786 11.4867C9.79527 12.106 9.56905 12.7246 9.11038 13.1479C8.15992 14.0249 7.89586 15.4209 8.46029 16.5845L8.5292 16.7266C9.0266 17.752 10.0366 18.4236 11.164 18.4938L11.2895 18.709C11.9647 19.8665 13.0168 20.4999 14.1214 20.4999C15.2261 20.4999 16.2781 19.8665 16.9533 18.709L17.0808 18.4905C18.028 18.4156 18.8916 17.9008 19.4067 17.0915C20.1948 15.8532 19.9861 14.2287 18.9106 13.2299L18.8813 13.2027C18.7502 13.081 18.6369 12.9445 18.5427 12.7972C18.394 12.5645 18.0848 12.4965 17.8521 12.6452C17.6195 12.7939 17.5514 13.1031 17.7002 13.3358C17.8395 13.5537 18.0071 13.7556 18.2008 13.9355L18.2301 13.9626C18.952 14.6331 19.0921 15.7234 18.5631 16.5546C18.1884 17.1434 17.5388 17.4999 16.8409 17.4999H16.7976C16.7957 17.4999 16.7938 17.4999 16.792 17.4998C16.7878 17.4998 16.7837 17.4998 16.7795 17.4999H11.4633C11.4573 17.4998 11.4513 17.4998 11.4453 17.4999H11.3603C10.5379 17.4999 9.78785 17.0301 9.42893 16.2902L9.36003 16.1481C8.98798 15.3811 9.16204 14.4609 9.78854 13.8828C10.4844 13.2407 10.8276 12.3022 10.7101 11.3627L10.6572 10.9395C10.4511 9.29009 11.7371 7.83325 13.3993 7.83325H14.5346C15.2803 7.83325 15.9488 8.12501 16.443 8.59638C16.6428 8.78697 16.9593 8.77948 17.1499 8.57965C17.3405 8.37982 17.333 8.06333 17.1332 7.87274C16.4611 7.23175 15.5484 6.83325 14.5346 6.83325H13.3993ZM14.1214 19.4999C13.5073 19.4999 12.8522 19.1917 12.3459 18.4999H15.8969C15.3907 19.1917 14.7355 19.4999 14.1214 19.4999Z" fill="#1573FE"/>
<path d="M18.7882 10.6666C18.7882 11.403 18.1912 11.9999 17.4549 11.9999C16.7185 11.9999 16.1215 11.403 16.1215 10.6666C16.1215 9.93021 16.7185 9.33325 17.4549 9.33325C18.1912 9.33325 18.7882 9.93021 18.7882 10.6666Z" fill="#1573FE"/>
</svg>
