<svg width="23" height="22" viewBox="0 0 23 22" fill="none" xmlns="http://www.w3.org/2000/svg">
<path d="M12.828 6.46731C12.5338 6.17572 12.0589 6.17784 11.7673 6.47204C11.4757 6.76624 11.4778 7.24111 11.772 7.53269L13.1824 8.93054C13.7573 9.50033 14.1427 9.88386 14.4018 10.2065C14.4137 10.2213 14.4251 10.2358 14.4362 10.25L7.5 10.25C7.08579 10.25 6.75 10.5858 6.75 11C6.75 11.4142 7.08579 11.75 7.5 11.75L14.4362 11.75C14.4251 11.7642 14.4137 11.7787 14.4018 11.7935C14.1427 12.1161 13.7573 12.4997 13.1824 13.0695L11.772 14.4673C11.4778 14.7589 11.4757 15.2338 11.7673 15.528C12.0589 15.8222 12.5338 15.8243 12.828 15.5327L14.2691 14.1043C14.8053 13.573 15.2525 13.1298 15.5713 12.7328C15.9057 12.3163 16.1601 11.8787 16.2281 11.3455C16.2427 11.2308 16.25 11.1154 16.25 11C16.25 10.8846 16.2427 10.7692 16.2281 10.6545C16.1601 10.1213 15.9057 9.68367 15.5713 9.26724C15.2525 8.87023 14.8053 8.42705 14.2691 7.89568L12.828 6.46731Z" fill="white"/>
<path fill-rule="evenodd" clip-rule="evenodd" d="M11.5 0.25C5.56294 0.25 0.75 5.06294 0.75 11C0.75 16.9371 5.56294 21.75 11.5 21.75C17.4371 21.75 22.25 16.9371 22.25 11C22.25 5.06294 17.4371 0.25 11.5 0.25ZM2.25 11C2.25 5.89137 6.39137 1.75 11.5 1.75C16.6086 1.75 20.75 5.89137 20.75 11C20.75 16.1086 16.6086 20.25 11.5 20.25C6.39137 20.25 2.25 16.1086 2.25 11Z" fill="white"/>
</svg>
