<svg width="14" height="15" viewBox="0 0 14 15" fill="none" xmlns="http://www.w3.org/2000/svg">
<path d="M12.9573 2.11987C12.79 1.9038 12.5961 1.70986 12.38 1.54264C11.8872 1.16128 11.3146 1.00571 10.6677 0.935072C10.0457 0.867143 9.26789 0.870627 8.31618 0.87489L5.78932 0.886165C5.37511 0.888013 5.04083 1.22529 5.04267 1.6395C5.04452 2.05371 5.3818 2.388 5.79601 2.38615L8.27815 2.37508C9.28552 2.37058 9.97767 2.36863 10.5049 2.42621C10.6762 2.44492 10.8194 2.46903 10.9411 2.49818L0.312589 13.1266C0.0196963 13.4195 0.0196959 13.8944 0.312589 14.1873C0.605482 14.4802 1.08036 14.4802 1.37325 14.1873L12.0017 3.55884C12.0309 3.68044 12.055 3.82364 12.0737 3.99499C12.1313 4.52223 12.1293 5.21437 12.1248 6.22174L12.1137 8.70388C12.1119 9.11809 12.4462 9.45537 12.8604 9.45722C13.2746 9.45907 13.6119 9.12478 13.6137 8.71057L13.625 6.18369C13.6293 5.23199 13.6327 4.45417 13.5648 3.83215C13.4942 3.18532 13.3386 2.61265 12.9573 2.11987Z" fill="#8B8B8B"/>
</svg>
