<svg width="14" height="14" viewBox="0 0 14 14" fill="none" xmlns="http://www.w3.org/2000/svg">
<path fill-rule="evenodd" clip-rule="evenodd" d="M13.4792 3.90937C13.8867 1.78498 12.0216 -0.0801015 9.89719 0.327324L3.79782 1.49709C2.47193 1.75137 1.41156 2.755 1.07468 4.05912C0.402075 6.66284 2.81677 9.04247 5.40949 8.28C5.48109 8.25895 5.54762 8.32547 5.52656 8.39707C4.76411 10.9898 7.14373 13.4045 9.74746 12.7319C11.0516 12.395 12.0552 11.3347 12.3095 10.0088L13.4792 3.90937ZM10.0855 1.30943C11.5158 1.03513 12.7714 2.29079 12.4971 3.72103L11.3274 9.8204C11.1465 10.7637 10.4303 11.5227 9.49735 11.7637C7.6326 12.2454 5.94633 10.5142 6.48594 8.6792C6.73029 7.84828 5.95829 7.07627 5.12736 7.32063C3.29243 7.86024 1.56119 6.17397 2.0429 4.30923C2.2839 3.37628 3.04292 2.66009 3.98617 2.47919L10.0855 1.30943Z" fill="white"/>
<path d="M1.79636 9.8889C1.99162 9.69364 1.99162 9.37706 1.79636 9.1818C1.6011 8.98654 1.28452 8.98654 1.08926 9.1818L0.146447 10.1246C-0.0488155 10.3199 -0.0488156 10.6365 0.146447 10.8317C0.341709 11.027 0.658291 11.027 0.853553 10.8317L1.79636 9.8889Z" fill="white"/>
<path d="M4.15338 10.3603C4.34865 10.165 4.34865 9.84846 4.15338 9.6532C3.95812 9.45794 3.64154 9.45794 3.44628 9.6532L2.50347 10.596C2.30821 10.7913 2.30821 11.1079 2.50347 11.3031C2.69873 11.4984 3.01531 11.4984 3.21058 11.3031L4.15338 10.3603Z" fill="white"/>
<path d="M4.62479 12.7173C4.82005 12.5221 4.82005 12.2055 4.62479 12.0102C4.42953 11.815 4.11294 11.815 3.91768 12.0102L2.97487 12.953C2.77961 13.1483 2.77961 13.4649 2.97487 13.6601C3.17014 13.8554 3.48672 13.8554 3.68198 13.6601L4.62479 12.7173Z" fill="white"/>
</svg>
