<svg width="28" height="28" viewBox="0 0 28 28" fill="none" xmlns="http://www.w3.org/2000/svg">
<rect width="28" height="28" rx="8" fill="#1A2A42"/>
<path d="M16.137 8.74164C16.4064 8.47119 16.7055 8.24699 17.0876 8.18611C17.169 8.17314 17.2511 8.16663 17.3334 8.16663C17.4156 8.16663 17.4977 8.17314 17.5791 8.18611C17.9612 8.24699 18.2603 8.47119 18.5297 8.74164C18.7922 9.00518 19.0855 9.37512 19.441 9.82344L20.3918 11.0226C20.5634 11.239 20.527 11.5535 20.3107 11.7251C20.0943 11.8966 19.7798 11.8603 19.6082 11.6439L18.6763 10.4686C18.3042 9.99928 18.0485 9.67794 17.8334 9.45964L17.8334 18C17.8334 18.2761 17.6095 18.5 17.3334 18.5C17.0572 18.5 16.8334 18.2761 16.8334 18L16.8334 9.45964C16.6182 9.67794 16.3625 9.99928 15.9904 10.4686L15.0585 11.6439C14.8869 11.8603 14.5724 11.8966 14.356 11.7251C14.1397 11.5535 14.1033 11.239 14.2749 11.0226L15.2257 9.82343C15.5812 9.37512 15.8745 9.00518 16.137 8.74164Z" fill="#1573FE"/>
<path d="M11.1667 9.33329C11.1667 9.05715 10.9428 8.83329 10.6667 8.83329C10.3905 8.83329 10.1667 9.05715 10.1667 9.33329L10.1667 17.8736C9.95158 17.6553 9.69585 17.334 9.32371 16.8646L8.39181 15.6893C8.22024 15.4729 7.90575 15.4366 7.68937 15.6082C7.47299 15.7797 7.43667 16.0942 7.60823 16.3106L8.55907 17.5098C8.91452 17.9581 9.20783 18.3281 9.47036 18.5916C9.73977 18.8621 10.0388 19.0863 10.4209 19.1471C10.5023 19.1601 10.5844 19.1666 10.6667 19.1666C10.7489 19.1666 10.8311 19.1601 10.9125 19.1471C11.2946 19.0863 11.5936 18.8621 11.863 18.5916C12.1255 18.3281 12.4189 17.9581 12.7743 17.5098L13.7251 16.3106C13.8967 16.0942 13.8604 15.7797 13.644 15.6082C13.4276 15.4366 13.1131 15.4729 12.9416 15.6893L12.0097 16.8646C11.6375 17.334 11.3818 17.6553 11.1667 17.8736L11.1667 9.33329Z" fill="#1573FE"/>
</svg>
